<svg width="790" height="70" viewBox="0 0 790 70" fill="none" xmlns="http://www.w3.org/2000/svg">
<path d="M66.0495 31.0488H63.1092C56.1943 31.0488 52.73 22.689 57.6201 17.7989L59.6981 15.7182C60.3833 14.9825 60.7562 14.0095 60.7383 13.0043C60.7203 11.9991 60.313 11.0401 59.602 10.3293C58.891 9.61853 57.9319 9.21141 56.9267 9.19373C55.9215 9.17605 54.9487 9.54919 54.2131 10.2345L52.1338 12.3112C47.2437 17.1999 38.8838 13.737 38.8838 6.82212V3.88179C38.8838 2.85227 38.4749 1.86493 37.7469 1.13695C37.0189 0.408973 36.0316 0 35.002 0C33.9725 0 32.9852 0.408973 32.2572 1.13695C31.5292 1.86493 31.1203 2.85227 31.1203 3.88179V6.82349C31.1203 13.7384 22.7604 17.2013 17.8703 12.3126L15.7909 10.2345C15.0554 9.54919 14.0826 9.17605 13.0774 9.19373C12.0722 9.21141 11.1131 9.61853 10.4021 10.3293C9.6911 11.0401 9.28374 11.9991 9.26581 13.0043C9.24788 14.0095 9.62078 14.9825 10.306 15.7182L12.3867 17.7989C17.2768 22.689 13.8125 31.0488 6.89763 31.0488H3.95456C3.43876 31.0392 2.92621 31.1324 2.44687 31.3231C1.96752 31.5138 1.53099 31.7981 1.1628 32.1595C0.794609 32.5209 0.502139 32.952 0.302486 33.4277C0.102832 33.9033 0 34.4141 0 34.93C0 35.4458 0.102832 35.9566 0.302486 36.4322C0.502139 36.9079 0.794609 37.339 1.1628 37.7004C1.53099 38.0618 1.96752 38.3461 2.44687 38.5368C2.92621 38.7275 3.43876 38.8207 3.95456 38.8111H6.8949C13.8098 38.8111 17.2741 47.1723 12.384 52.0623L10.306 54.1417C9.6275 54.8787 9.26023 55.8495 9.28093 56.851C9.30164 57.8525 9.70872 58.8073 10.4171 59.5156C11.1254 60.224 12.0801 60.631 13.0817 60.6517C14.0832 60.6724 15.0539 60.3052 15.7909 59.6267L17.8703 57.546C22.7604 52.6559 31.1203 56.1201 31.1203 63.0351V65.974C31.1203 67.0035 31.5292 67.9909 32.2572 68.7189C32.9852 69.4468 33.9725 69.8558 35.002 69.8558C36.0316 69.8558 37.0189 69.4468 37.7469 68.7189C38.4749 67.9909 38.8838 67.0035 38.8838 65.974V63.0378C38.8838 56.1229 47.2437 52.6586 52.1338 57.5487L54.2131 59.6267C54.9501 60.3052 55.9209 60.6724 56.9224 60.6517C57.924 60.631 58.8787 60.224 59.587 59.5156C60.2954 58.8073 60.7025 57.8525 60.7232 56.851C60.7439 55.8495 60.3766 54.8787 59.6981 54.1417L57.6174 52.0623C52.7273 47.1723 56.1916 38.8111 63.1065 38.8111H66.0454C66.5612 38.8207 67.0738 38.7275 67.5531 38.5368C68.0325 38.3461 68.469 38.0618 68.8372 37.7004C69.2054 37.339 69.4979 36.9079 69.6975 36.4322C69.8972 35.9566 70 35.4458 70 34.93C70 34.4141 69.8972 33.9033 69.6975 33.4277C69.4979 32.952 69.2054 32.5209 68.8372 32.1595C68.469 31.7981 68.0325 31.5138 67.5531 31.3231C67.0738 31.1324 66.5612 31.0392 66.0454 31.0488H66.0495ZM30.6359 37.1137C29.3406 37.1137 28.0743 36.7296 26.9973 36.01C25.9203 35.2903 25.0809 34.2675 24.5852 33.0708C24.0895 31.874 23.9598 30.5572 24.2125 29.2868C24.4652 28.0164 25.0889 26.8494 26.0049 25.9335C26.9208 25.0175 28.0878 24.3938 29.3582 24.1411C30.6286 23.8884 31.9455 24.0181 33.1422 24.5138C34.3389 25.0095 35.3617 25.8489 36.0814 26.9259C36.801 28.0029 37.1851 29.2692 37.1851 30.5645C37.1851 32.3014 36.4951 33.9673 35.2669 35.1955C34.0387 36.4237 32.3729 37.1137 30.6359 37.1137ZM41.5513 44.7545C40.9036 44.7545 40.2705 44.5624 39.732 44.2026C39.1935 43.8428 38.7738 43.3314 38.5259 42.733C38.2781 42.1347 38.2132 41.4762 38.3396 40.841C38.4659 40.2058 38.7778 39.6223 39.2358 39.1644C39.6937 38.7064 40.2772 38.3945 40.9124 38.2682C41.5477 38.1418 42.2061 38.2067 42.8044 38.4545C43.4028 38.7024 43.9142 39.1221 44.274 39.6606C44.6338 40.1991 44.8259 40.8322 44.8259 41.4799C44.8259 42.3484 44.4809 43.1813 43.8668 43.7954C43.2527 44.4095 42.4198 44.7545 41.5513 44.7545Z" fill="#874BEA"/>
<path d="M426.05 31.0488H423.109C416.194 31.0488 412.73 22.689 417.62 17.7989L419.698 15.7182C420.383 14.9825 420.756 14.0095 420.738 13.0043C420.72 11.9991 420.313 11.0401 419.602 10.3293C418.891 9.61853 417.932 9.21141 416.927 9.19373C415.922 9.17605 414.949 9.54919 414.213 10.2345L412.134 12.3112C407.244 17.1999 398.884 13.737 398.884 6.82212V3.88179C398.884 2.85227 398.475 1.86493 397.747 1.13695C397.019 0.408973 396.032 0 395.002 0C393.973 0 392.985 0.408973 392.257 1.13695C391.529 1.86493 391.12 2.85227 391.12 3.88179V6.82349C391.12 13.7384 382.76 17.2013 377.87 12.3126L375.791 10.2345C375.055 9.54919 374.083 9.17605 373.077 9.19373C372.072 9.21141 371.113 9.61853 370.402 10.3293C369.691 11.0401 369.284 11.9991 369.266 13.0043C369.248 14.0095 369.621 14.9825 370.306 15.7182L372.387 17.7989C377.277 22.689 373.813 31.0488 366.898 31.0488H363.955C363.439 31.0392 362.926 31.1324 362.447 31.3231C361.968 31.5138 361.531 31.7981 361.163 32.1595C360.795 32.5209 360.502 32.952 360.302 33.4277C360.103 33.9033 360 34.4141 360 34.93C360 35.4458 360.103 35.9566 360.302 36.4322C360.502 36.9079 360.795 37.339 361.163 37.7004C361.531 38.0618 361.968 38.3461 362.447 38.5368C362.926 38.7275 363.439 38.8207 363.955 38.8111H366.895C373.81 38.8111 377.274 47.1723 372.384 52.0623L370.306 54.1417C369.628 54.8787 369.26 55.8495 369.281 56.851C369.302 57.8525 369.709 58.8073 370.417 59.5156C371.125 60.224 372.08 60.631 373.082 60.6517C374.083 60.6724 375.054 60.3052 375.791 59.6267L377.87 57.546C382.76 52.6559 391.12 56.1201 391.12 63.0351V65.974C391.12 67.0035 391.529 67.9909 392.257 68.7189C392.985 69.4468 393.973 69.8558 395.002 69.8558C396.032 69.8558 397.019 69.4468 397.747 68.7189C398.475 67.9909 398.884 67.0035 398.884 65.974V63.0378C398.884 56.1229 407.244 52.6586 412.134 57.5487L414.213 59.6267C414.95 60.3052 415.921 60.6724 416.922 60.6517C417.924 60.631 418.879 60.224 419.587 59.5156C420.295 58.8073 420.702 57.8525 420.723 56.851C420.744 55.8495 420.377 54.8787 419.698 54.1417L417.617 52.0623C412.727 47.1723 416.192 38.8111 423.106 38.8111H426.045C426.561 38.8207 427.074 38.7275 427.553 38.5368C428.032 38.3461 428.469 38.0618 428.837 37.7004C429.205 37.339 429.498 36.9079 429.698 36.4322C429.897 35.9566 430 35.4458 430 34.93C430 34.4141 429.897 33.9033 429.698 33.4277C429.498 32.952 429.205 32.5209 428.837 32.1595C428.469 31.7981 428.032 31.5138 427.553 31.3231C427.074 31.1324 426.561 31.0392 426.045 31.0488H426.05ZM390.636 37.1137C389.341 37.1137 388.074 36.7296 386.997 36.01C385.92 35.2903 385.081 34.2675 384.585 33.0708C384.089 31.874 383.96 30.5572 384.212 29.2868C384.465 28.0164 385.089 26.8494 386.005 25.9335C386.921 25.0175 388.088 24.3938 389.358 24.1411C390.629 23.8884 391.945 24.0181 393.142 24.5138C394.339 25.0095 395.362 25.8489 396.081 26.9259C396.801 28.0029 397.185 29.2692 397.185 30.5645C397.185 32.3014 396.495 33.9673 395.267 35.1955C394.039 36.4237 392.373 37.1137 390.636 37.1137ZM401.551 44.7545C400.904 44.7545 400.271 44.5624 399.732 44.2026C399.193 43.8428 398.774 43.3314 398.526 42.733C398.278 42.1347 398.213 41.4762 398.34 40.841C398.466 40.2058 398.778 39.6223 399.236 39.1644C399.694 38.7064 400.277 38.3945 400.912 38.2682C401.548 38.1418 402.206 38.2067 402.804 38.4545C403.403 38.7024 403.914 39.1221 404.274 39.6606C404.634 40.1991 404.826 40.8322 404.826 41.4799C404.826 42.3484 404.481 43.1813 403.867 43.7954C403.253 44.4095 402.42 44.7545 401.551 44.7545Z" fill="#874BEA"/>
<path d="M786.05 31.0488H783.109C776.194 31.0488 772.73 22.689 777.62 17.7989L779.698 15.7182C780.383 14.9825 780.756 14.0095 780.738 13.0043C780.72 11.9991 780.313 11.0401 779.602 10.3293C778.891 9.61853 777.932 9.21141 776.927 9.19373C775.922 9.17605 774.949 9.54919 774.213 10.2345L772.134 12.3112C767.244 17.1999 758.884 13.737 758.884 6.82212V3.88179C758.884 2.85227 758.475 1.86493 757.747 1.13695C757.019 0.408973 756.032 0 755.002 0C753.973 0 752.985 0.408973 752.257 1.13695C751.529 1.86493 751.12 2.85227 751.12 3.88179V6.82349C751.12 13.7384 742.76 17.2013 737.87 12.3126L735.791 10.2345C735.055 9.54919 734.083 9.17605 733.077 9.19373C732.072 9.21141 731.113 9.61853 730.402 10.3293C729.691 11.0401 729.284 11.9991 729.266 13.0043C729.248 14.0095 729.621 14.9825 730.306 15.7182L732.387 17.7989C737.277 22.689 733.813 31.0488 726.898 31.0488H723.955C723.439 31.0392 722.926 31.1324 722.447 31.3231C721.968 31.5138 721.531 31.7981 721.163 32.1595C720.795 32.5209 720.502 32.952 720.302 33.4277C720.103 33.9033 720 34.4141 720 34.93C720 35.4458 720.103 35.9566 720.302 36.4322C720.502 36.9079 720.795 37.339 721.163 37.7004C721.531 38.0618 721.968 38.3461 722.447 38.5368C722.926 38.7275 723.439 38.8207 723.955 38.8111H726.895C733.81 38.8111 737.274 47.1723 732.384 52.0623L730.306 54.1417C729.628 54.8787 729.26 55.8495 729.281 56.851C729.302 57.8525 729.709 58.8073 730.417 59.5156C731.125 60.224 732.08 60.631 733.082 60.6517C734.083 60.6724 735.054 60.3052 735.791 59.6267L737.87 57.546C742.76 52.6559 751.12 56.1201 751.12 63.0351V65.974C751.12 67.0035 751.529 67.9909 752.257 68.7189C752.985 69.4468 753.973 69.8558 755.002 69.8558C756.032 69.8558 757.019 69.4468 757.747 68.7189C758.475 67.9909 758.884 67.0035 758.884 65.974V63.0378C758.884 56.1229 767.244 52.6586 772.134 57.5487L774.213 59.6267C774.95 60.3052 775.921 60.6724 776.922 60.6517C777.924 60.631 778.879 60.224 779.587 59.5156C780.295 58.8073 780.702 57.8525 780.723 56.851C780.744 55.8495 780.377 54.8787 779.698 54.1417L777.617 52.0623C772.727 47.1723 776.192 38.8111 783.106 38.8111H786.045C786.561 38.8207 787.074 38.7275 787.553 38.5368C788.032 38.3461 788.469 38.0618 788.837 37.7004C789.205 37.339 789.498 36.9079 789.698 36.4322C789.897 35.9566 790 35.4458 790 34.93C790 34.4141 789.897 33.9033 789.698 33.4277C789.498 32.952 789.205 32.5209 788.837 32.1595C788.469 31.7981 788.032 31.5138 787.553 31.3231C787.074 31.1324 786.561 31.0392 786.045 31.0488H786.05ZM750.636 37.1137C749.341 37.1137 748.074 36.7296 746.997 36.01C745.92 35.2903 745.081 34.2675 744.585 33.0708C744.089 31.874 743.96 30.5572 744.212 29.2868C744.465 28.0164 745.089 26.8494 746.005 25.9335C746.921 25.0175 748.088 24.3938 749.358 24.1411C750.629 23.8884 751.945 24.0181 753.142 24.5138C754.339 25.0095 755.362 25.8489 756.081 26.9259C756.801 28.0029 757.185 29.2692 757.185 30.5645C757.185 32.3014 756.495 33.9673 755.267 35.1955C754.039 36.4237 752.373 37.1137 750.636 37.1137ZM761.551 44.7545C760.904 44.7545 760.271 44.5624 759.732 44.2026C759.193 43.8428 758.774 43.3314 758.526 42.733C758.278 42.1347 758.213 41.4762 758.34 40.841C758.466 40.2058 758.778 39.6223 759.236 39.1644C759.694 38.7064 760.277 38.3945 760.912 38.2682C761.548 38.1418 762.206 38.2067 762.804 38.4545C763.403 38.7024 763.914 39.1221 764.274 39.6606C764.634 40.1991 764.826 40.8322 764.826 41.4799C764.826 42.3484 764.481 43.1813 763.867 43.7954C763.253 44.4095 762.42 44.7545 761.551 44.7545Z" fill="#874BEA"/>
</svg>
